<svg width="128" height="150" viewBox="0 0 128 150" fill="none" xmlns="http://www.w3.org/2000/svg">
<path fill-rule="evenodd" clip-rule="evenodd" d="M26.2575 105.707C27.6209 107.581 28.9843 109.49 30.3731 111.399C30.7936 109.781 31.1375 108.594 31.4178 107.662C34.3993 108.71 37.4573 109.63 40.5408 110.433C41.4582 112.761 43.4586 115.194 47.0389 118.29C47.2428 115.601 47.4085 113.576 47.4085 111.865C50.2371 112.284 53.0912 112.563 55.9198 112.726V112.796C56.6795 114.633 57.6624 116.386 58.8503 118.023C60.0742 119.736 61.3925 121.391 62.8001 122.982L63.7557 124.076L64.0743 124.425C63.8322 121.969 63.6029 119.839 63.4118 117.906C63.2206 115.974 63.0167 114.251 62.8001 112.633C66.8843 112.257 70.9229 111.544 74.8664 110.503C75.5799 111.841 76.5355 113.331 77.7714 115.159C78.7842 113.068 79.6026 110.903 80.2178 108.687C83.7465 107.283 87.154 105.637 90.411 103.763C91.0353 105.113 91.9144 106.731 93.1376 109.083C94.0914 107.285 94.942 105.443 95.6859 103.565C96.1934 102.351 96.5067 101.077 96.6161 99.7818C99.1644 98.0125 101.573 96.115 103.84 94.2292C106.108 92.3434 105.855 92.694 103.446 94.9748C101.817 96.5166 105.994 92.6467 105.994 92.6467C102.061 94.7119 98.6165 94.8229 95.3801 96.4293C94.106 94.9393 91.5577 93.6123 87.9009 91.7731C88.1047 93.6589 88.2831 95.1372 88.436 96.4293C88.5889 97.7214 88.7291 98.6526 88.9329 99.5257C85.8877 100.864 82.9062 101.959 80.0139 102.948C79.4312 101.766 78.6954 100.652 77.8224 99.6305C76.8413 98.4664 75.6309 97.1161 74.1656 95.5213C73.8216 97.6516 73.5412 99.386 73.3883 100.876C73.2219 102.166 73.1623 103.466 73.21 104.764C69.4332 105.536 65.6011 106.061 61.7426 106.335C61.3604 104.426 60.8634 102.448 60.2646 100.201C59.6657 97.9542 58.9267 95.4399 58.0221 92.4366C57.1047 95.4748 56.3785 98.0473 55.8306 100.329C55.3135 102.332 54.9979 104.373 54.8877 106.429C52.0973 106.301 49.3069 106.114 46.5038 105.8C46.1343 104.741 45.6246 103.612 44.9876 102.308C44.3505 101.004 43.5605 99.4559 42.5794 97.6516C41.6153 100.047 40.8195 102.497 40.1967 104.985C37.4064 104.508 34.5905 103.972 31.6854 103.356C31.1121 102.191 29.9144 100.294 27.863 96.2198C27.2344 98.1987 26.6059 100.139 25.9773 102.04C20.4052 100.513 16.2647 100.859 11.0697 98.467C13.3637 100.306 14.5298 99.67 17.0964 101.179C20.0237 102.92 23.1051 104.435 26.3086 105.707" fill="#CD605F"/>
<path fill-rule="evenodd" clip-rule="evenodd" d="M47.3828 83.3187C56.28 87.5231 60.7614 86.2442 69.6804 82.7367C69.8213 82.6534 70.235 82.2889 70.3175 82.1547C70.3123 82.3088 70.4 82.0205 70.3175 82.1547C70.3192 82 70.3926 82.293 70.3175 82.1547C70.2424 82.0163 70.3104 82.4104 70.1751 82.3188C64.8961 78.8658 64.9579 74.435 62.2139 69.5956C61.8224 68.9411 61.2327 68.4057 60.5167 68.0548C59.8007 67.7038 58.9894 67.5526 58.1817 67.6192C57.374 67.6859 56.6048 67.9678 55.9679 68.4304C55.3311 68.893 54.8539 69.5164 54.5949 70.2246C52.0599 75.7187 52.7314 80.1224 47.3828 83.3187C47.3828 83.3187 50.5508 84.0214 47.7374 83.0796C51.2651 84.2605 48.8937 83.4007 48.8937 83.4007C48.8937 83.4007 52.9551 84.1399 48.657 83.3187C48.7549 83.4586 47.221 83.2431 47.3828 83.3187Z" fill="#CD605F"/>
<path fill-rule="evenodd" clip-rule="evenodd" d="M47.2504 84.884C55.1812 88.5681 62.9398 88.2199 70.5262 83.8394C70.6536 83.7665 70.7593 83.667 70.8339 83.5496C70.9086 83.4322 70.95 83.3003 70.9547 83.1654C70.9562 83.0301 70.9216 82.8964 70.8536 82.7753C70.7857 82.6542 70.6864 82.5492 70.564 82.4691C65.7879 79.4476 64.3765 77.0889 61.8939 72.8544C61.5397 72.2817 61.0061 71.8133 60.3583 71.5062C59.7106 71.1991 58.9765 71.0667 58.2457 71.1251C57.515 71.1834 56.8191 71.43 56.2428 71.8348C55.6666 72.2396 55.235 72.7851 55.0006 73.4047C52.707 78.2121 52.014 80.7168 47.1748 83.5136C47.0392 83.5924 46.9286 83.701 46.8535 83.8289C46.7785 83.9567 46.7416 84.0995 46.7463 84.2438C46.7534 84.3893 46.8038 84.5305 46.8924 84.6529C46.981 84.7753 47.1046 84.8744 47.2504 84.9401" fill="url(#paint0_linear_317_1586)"/>
<g filter="url(#filter0_i_317_1586)">
<path fill-rule="evenodd" clip-rule="evenodd" d="M41.012 26.2951C29.6976 20.7774 16.2171 26.8492 8.5849 42.1449C0.952747 57.4407 3.947 74.3313 15.2742 79.8606C26.6014 85.3899 41.9548 77.4626 49.587 62.1668C49.931 61.4684 50.2496 60.7816 50.5554 60.0832L39.3429 55.6248C35.5204 54.0999 31.0863 55.6248 28.7801 59.3731L28.1686 60.3742L33.8003 63.2727C30.857 65.6008 27.3403 66.3691 24.4735 64.9723C20.0012 62.7838 18.8163 56.1137 21.8233 50.0606C24.8303 44.0075 30.9207 40.8878 35.393 43.0763C36.5269 43.7073 37.4875 44.5674 38.2009 45.5905C38.9143 46.6136 39.3617 47.7724 39.5085 48.978L48.0198 51.3224C48.0198 38.5177 49.931 30.6137 41.012 26.2951Z" fill="#CD605F"/>
</g>
<path fill-rule="evenodd" clip-rule="evenodd" d="M84.1158 5.41691C100.102 1.07416 117.189 14.498 122.296 35.3878C127.403 56.2776 118.573 76.7235 102.599 81.0672C86.6244 85.4108 69.5247 71.9973 64.4174 51.1075C64.1968 50.171 63.9892 49.2244 63.8168 48.2915L79.3354 45.2608C84.6689 44.2176 89.7845 47.1532 91.5936 52.3588L92.0782 53.7411L84.0693 56.0909C87.113 59.6818 91.3376 61.4408 95.3823 60.2913C101.709 58.5806 105.19 50.4882 103.177 42.2265C101.165 33.9649 94.401 28.6746 88.0864 30.3862C86.475 30.9037 85.011 31.7527 83.8048 32.869C82.5986 33.9853 81.6817 35.3398 81.1233 36.8304L59.4873 36.83C60.004 21.225 71.615 8.75977 84.1197 5.37234" fill="#CD605F"/>
<g filter="url(#filter1_i_317_1586)">
<path fill-rule="evenodd" clip-rule="evenodd" d="M81.5674 4.25246C97.5537 -0.0902891 114.64 13.3335 119.748 34.2233C124.855 55.1131 116.025 75.5591 100.05 79.9027C84.076 84.2464 66.9763 70.8328 61.869 49.943C61.6484 49.0066 61.4408 48.0599 61.2684 47.127L76.787 44.0964C82.1205 43.0531 87.2361 45.9888 89.0452 51.1943L89.5298 52.5767L81.5209 54.9264C84.5646 58.5173 88.7892 60.2763 92.8339 59.1268C99.1606 57.4161 102.641 49.3237 100.629 41.062C98.6166 32.8004 91.8526 27.5101 85.538 29.2217C83.9266 29.7393 82.4626 30.5883 81.2564 31.7046C80.0502 32.8209 79.1333 34.1754 78.5749 35.666L60.4529 36.4399C60.9695 20.8349 69.0666 7.59532 81.5713 4.20789" fill="#CD605F"/>
</g>
<g filter="url(#filter2_i_317_1586)">
<path fill-rule="evenodd" clip-rule="evenodd" d="M78.5485 1.48396C94.934 -4.24322 114.123 8.37522 121.424 29.6543C128.724 50.9333 121.347 72.8177 104.974 78.5449C88.6016 84.2721 69.4001 71.6653 62.0992 50.3862C61.7807 49.4317 61.4749 48.4655 61.2073 47.511L77.2234 43.1807C82.7277 41.6907 88.3722 44.3448 90.7548 49.6063L91.3919 51.0032L83.1991 54.053C86.7285 57.5452 91.3282 59.0469 95.4692 57.5452C101.955 55.2869 104.86 46.6263 101.98 38.2101C99.1005 29.7939 91.5066 24.8234 85.0339 27.0817C83.3897 27.7418 81.931 28.7344 80.7678 29.9846C79.6046 31.2348 78.7673 32.71 78.3191 34.2989L59.3598 36.4873C58.4551 20.2603 65.7305 5.90742 78.5485 1.43742" fill="url(#paint1_linear_317_1586)"/>
</g>
<g filter="url(#filter3_i_317_1586)">
<path fill-rule="evenodd" clip-rule="evenodd" d="M39.0754 24.4513C27.761 18.9336 12.3947 26.8492 4.76257 42.145C-2.86958 57.4408 0.12467 74.3313 11.4519 79.8606C22.779 85.3899 38.1325 77.4626 45.7647 62.1669C46.1087 61.4684 46.4272 60.7817 46.733 60.0832L35.5205 55.6248C31.6981 54.0999 27.264 55.6249 24.9578 59.3731L24.3462 60.3742L29.978 63.2727C27.0347 65.6009 23.518 66.3692 20.6512 64.9723C16.1789 62.7839 14.994 56.1138 18.001 50.0607C21.008 44.0075 27.0984 40.8878 31.5706 43.0763C32.7046 43.7074 33.6652 44.5675 34.3786 45.5906C35.092 46.6136 35.5393 47.7724 35.6862 48.978L49.2686 52.0628C51.6895 40.0497 47.9944 28.7815 39.0754 24.4629" fill="url(#paint2_linear_317_1586)"/>
</g>
<g filter="url(#filter4_d_317_1586)">
<path fill-rule="evenodd" clip-rule="evenodd" d="M111.626 16.6386C108.956 13.0921 105.508 10.092 101.5 7.82938C97.4924 5.56676 93.013 4.0911 88.347 3.49637C79.1094 2.11114 74.3313 5.8827 69.6807 11.866C72.1143 7.81504 73.9363 4.8816 79.1348 2.79792C92.4242 -2.59168 105.816 7.26794 111.626 16.6386Z" fill="white"/>
</g>
<g filter="url(#filter5_d_317_1586)">
<path fill-rule="evenodd" clip-rule="evenodd" d="M8.52136 38.7558C13.6944 31.5735 20.2818 27.1152 29.6595 25.6136C38.0434 24.2283 42.401 27.9999 46.6057 33.9715C44.4014 29.9322 42.7832 26.9871 38.0179 24.9151C25.9517 19.5255 13.8091 29.3851 8.52136 38.7558Z" fill="white"/>
</g>
<g filter="url(#filter6_i_317_1586)">
<path fill-rule="evenodd" clip-rule="evenodd" d="M26.3978 107.554C27.7612 109.428 29.1246 111.337 30.5134 113.246C30.9339 111.628 31.2778 110.44 31.5581 109.509C34.5396 110.557 37.5976 111.476 40.6811 112.28C41.5985 114.608 43.5988 117.041 47.1792 120.137C47.3831 117.448 47.5488 115.423 47.5488 113.711C50.3774 114.131 53.2314 114.41 56.0601 114.573V114.643C56.8197 116.48 57.8027 118.233 58.9906 119.869C60.2145 121.582 61.5327 123.237 62.9404 124.828L63.896 125.922L64.2146 126.272C63.9725 123.815 63.7432 121.685 63.5521 119.753C63.3609 117.821 63.157 116.098 62.9404 114.48C67.0246 114.104 71.0632 113.391 75.0066 112.349C75.7202 113.688 76.6757 115.178 77.9117 117.006C78.9245 114.915 79.7429 112.75 80.3581 110.534C83.8868 109.129 87.2943 107.483 90.5513 105.61C91.1756 106.96 92.0547 108.578 93.2779 110.929C94.2317 109.132 95.0823 107.29 95.8262 105.412C96.3337 104.198 96.647 102.924 96.7564 101.628C99.3047 99.8591 101.713 97.9617 103.981 96.0759C106.249 94.1901 108.364 92.2927 110.352 90.4186C108.733 91.2334 107.141 92.0715 105.548 92.9213C102.095 94.8653 98.7567 96.6696 95.5204 98.276C94.2463 96.786 91.698 95.459 88.0412 93.6197C88.245 95.5055 88.4234 96.9839 88.5763 98.276C88.7292 99.5681 88.8694 100.499 89.0732 101.372C86.028 102.711 83.0465 103.805 80.1542 104.795C79.5714 103.613 78.8357 102.499 77.9627 101.477C76.9816 100.313 75.7711 98.9628 74.3059 97.368C73.9619 99.4982 73.6815 101.233 73.5286 102.723C73.3622 104.013 73.3026 105.312 73.3503 106.611C69.5735 107.383 65.7414 107.908 61.8829 108.182C61.5007 106.273 61.0037 104.294 60.4049 102.048C59.806 99.8009 59.067 97.2866 58.1624 94.2833C57.245 97.3215 56.5187 99.894 55.9709 102.176C55.4537 104.178 55.1381 106.22 55.028 108.275C52.2376 108.147 49.4472 107.961 46.6441 107.647C46.2746 106.587 45.7649 105.458 45.1278 104.154C44.4908 102.851 43.7008 101.303 42.7197 99.4982C41.7556 101.894 40.9597 104.343 40.337 106.832C37.5466 106.355 34.7308 105.819 31.8257 105.202C31.2524 104.038 30.0547 102.141 28.0033 98.0665C27.3747 100.045 26.7461 101.985 26.1176 103.887C20.5455 102.359 15.1308 100.389 9.93585 97.9966C12.2298 99.8358 14.6701 101.517 17.2367 103.025C20.1639 104.767 23.2454 106.281 26.4488 107.554" fill="url(#paint3_linear_317_1586)"/>
</g>
<path d="M46.7846 138.7C46.4364 138.7 46.1238 138.631 45.8469 138.492C45.5699 138.35 45.3518 138.155 45.1923 137.907C45.0371 137.659 44.9595 137.38 44.9595 137.07V134.76C44.9595 134.571 45.0224 134.429 45.1483 134.332C45.2783 134.231 45.4671 134.181 45.7147 134.181V137.07C45.7147 137.364 45.8112 137.599 46.0042 137.775C46.2014 137.947 46.4616 138.033 46.7846 138.033C47.1035 138.033 47.3595 137.945 47.5525 137.769C47.7497 137.592 47.8483 137.359 47.8483 137.07V134.76C47.8483 134.571 47.9112 134.429 48.0371 134.332C48.1671 134.231 48.356 134.181 48.6035 134.181V137.07C48.6035 137.38 48.5238 137.659 48.3644 137.907C48.2091 138.155 47.993 138.35 47.7161 138.492C47.4392 138.631 47.1287 138.7 46.7846 138.7ZM52.6146 138.7C52.2453 138.7 51.9244 138.652 51.6516 138.555C51.3789 138.459 51.1691 138.327 51.0223 138.159C50.8796 137.991 50.8083 137.798 50.8083 137.58C50.8083 137.24 51.0223 137.07 51.4502 137.07C51.4586 137.401 51.5635 137.653 51.7649 137.825C51.9705 137.997 52.2579 138.083 52.6272 138.083C52.9502 138.083 53.1999 138.029 53.3761 137.92C53.5523 137.811 53.6404 137.653 53.6404 137.448C53.6404 137.317 53.6069 137.213 53.5397 137.133C53.4726 137.049 53.3593 136.976 53.1999 136.913C53.0404 136.845 52.8097 136.778 52.5076 136.711C52.1048 136.623 51.7859 136.52 51.5509 136.403C51.3202 136.285 51.1523 136.145 51.0474 135.981C50.9425 135.817 50.8901 135.614 50.8901 135.371C50.8901 135.136 50.9593 134.928 51.0978 134.748C51.2362 134.567 51.4314 134.429 51.6831 134.332C51.9349 134.231 52.2265 134.181 52.5579 134.181C52.8726 134.181 53.1558 134.225 53.4076 134.313C53.6593 134.397 53.8565 134.517 53.9992 134.672C54.1418 134.827 54.2132 135.006 54.2132 135.207C54.2132 135.497 54.0097 135.648 53.6027 135.66C53.5691 135.358 53.4684 135.138 53.3006 134.999C53.1369 134.861 52.8894 134.792 52.5579 134.792C52.2642 134.792 52.0376 134.842 51.8782 134.943C51.7188 135.043 51.639 135.186 51.639 135.371C51.639 135.497 51.6684 135.601 51.7272 135.685C51.7901 135.765 51.8929 135.836 52.0355 135.899C52.1782 135.958 52.3838 136.017 52.6523 136.076C53.0803 136.172 53.4202 136.281 53.6719 136.403C53.9237 136.52 54.1041 136.663 54.2132 136.831C54.3265 136.994 54.3831 137.2 54.3831 137.448C54.3831 137.704 54.3097 137.926 54.1628 138.115C54.0202 138.304 53.8146 138.448 53.546 138.549C53.2817 138.65 52.9712 138.7 52.6146 138.7ZM56.6072 134.584C56.6072 134.487 56.6429 134.406 56.7142 134.338C56.7898 134.271 56.8821 134.238 56.9912 134.238H59.7919C59.7919 134.464 59.7499 134.63 59.666 134.735C59.5863 134.84 59.4562 134.892 59.2758 134.892H57.3625V136.094H59.0681C59.0681 136.321 59.0261 136.487 58.9422 136.592C58.8625 136.697 58.7345 136.749 58.5583 136.749H57.3625V137.989H59.4079C59.5842 137.989 59.7121 138.041 59.7919 138.146C59.8758 138.251 59.9177 138.417 59.9177 138.643H56.9912C56.8821 138.643 56.7898 138.61 56.7142 138.543C56.6429 138.476 56.6072 138.392 56.6072 138.291V134.584ZM62.1388 134.584C62.1388 134.487 62.1745 134.406 62.2458 134.338C62.3213 134.271 62.4136 134.238 62.5227 134.238H64.2157C64.6521 134.238 64.9941 134.357 65.2416 134.597C65.4934 134.836 65.6192 135.165 65.6192 135.585C65.6192 135.832 65.5668 136.042 65.4619 136.214C65.357 136.382 65.1997 136.516 64.9899 136.617V136.642C65.1745 136.722 65.315 136.841 65.4115 137.001C65.508 137.156 65.5563 137.349 65.5563 137.58V138.121C65.5563 138.31 65.4913 138.455 65.3612 138.555C65.2353 138.652 65.0486 138.7 64.8011 138.7V137.611C64.8011 137.158 64.608 136.931 64.222 136.931H62.8878V138.121C62.8878 138.31 62.8227 138.455 62.6927 138.555C62.5668 138.652 62.3822 138.7 62.1388 138.7V134.584ZM64.1843 136.283C64.3941 136.283 64.5577 136.222 64.6752 136.101C64.7969 135.975 64.8577 135.801 64.8577 135.578C64.8577 135.117 64.6332 134.886 64.1843 134.886H62.8878V136.283H64.1843ZM72.9123 138.7C72.543 138.7 72.2137 138.631 71.9242 138.492C71.6388 138.35 71.4165 138.155 71.257 137.907C71.0976 137.655 71.0179 137.37 71.0179 137.051V135.811C71.0179 135.492 71.0955 135.211 71.2507 134.968C71.4102 134.72 71.6304 134.527 71.9116 134.389C72.1969 134.25 72.52 134.181 72.8808 134.181C73.2416 134.181 73.5626 134.238 73.8437 134.351C74.1291 134.46 74.3493 134.613 74.5046 134.811C74.664 135.008 74.7437 135.232 74.7437 135.484C74.7437 135.631 74.6955 135.746 74.599 135.83C74.5025 135.91 74.3724 135.95 74.2088 135.95C74.1291 135.95 74.0535 135.941 73.9822 135.924C73.9948 135.862 74.0011 135.769 74.0011 135.648C74.0011 135.408 73.8962 135.213 73.6864 135.062C73.4808 134.911 73.2123 134.836 72.8808 134.836C72.5535 134.836 72.2871 134.926 72.0815 135.106C71.8759 135.287 71.7731 135.522 71.7731 135.811V137.051C71.7731 137.244 71.8214 137.416 71.9179 137.567C72.0144 137.718 72.1486 137.836 72.3207 137.92C72.4927 138.004 72.6899 138.045 72.9123 138.045C73.2353 138.045 73.4997 137.968 73.7053 137.813C73.9151 137.653 74.02 137.452 74.02 137.208V136.957H73.3906C73.2437 136.957 73.1221 136.902 73.0256 136.793C72.9332 136.68 72.8871 136.533 72.8871 136.352H74.4165C74.5256 136.352 74.6116 136.384 74.6745 136.447C74.7416 136.51 74.7752 136.594 74.7752 136.699V137.221C74.7752 137.506 74.6955 137.762 74.536 137.989C74.3808 138.211 74.1605 138.385 73.8752 138.511C73.5941 138.637 73.2731 138.7 72.9123 138.7Z" fill="white" fill-opacity="0.6"/>
<defs>
<filter id="filter0_i_317_1586" x="4.36078" y="24.2917" width="46.1946" height="59.4276" filterUnits="userSpaceOnUse" color-interpolation-filters="sRGB">
<feFlood flood-opacity="0" result="BackgroundImageFix"/>
<feBlend mode="normal" in="SourceGraphic" in2="BackgroundImageFix" result="shape"/>
<feColorMatrix in="SourceAlpha" type="matrix" values="0 0 0 0 0 0 0 0 0 0 0 0 0 0 0 0 0 0 127 0" result="hardAlpha"/>
<feOffset dy="2.0979"/>
<feGaussianBlur stdDeviation="1.04895"/>
<feComposite in2="hardAlpha" operator="arithmetic" k2="-1" k3="1"/>
<feColorMatrix type="matrix" values="0 0 0 0 0 0 0 0 0 0 0 0 0 0 0 0 0 0 0.25 0"/>
<feBlend mode="normal" in2="shape" result="effect1_innerShadow_317_1586"/>
</filter>
<filter id="filter1_i_317_1586" x="60.4529" y="3.43646" width="60.7433" height="79.3809" filterUnits="userSpaceOnUse" color-interpolation-filters="sRGB">
<feFlood flood-opacity="0" result="BackgroundImageFix"/>
<feBlend mode="normal" in="SourceGraphic" in2="BackgroundImageFix" result="shape"/>
<feColorMatrix in="SourceAlpha" type="matrix" values="0 0 0 0 0 0 0 0 0 0 0 0 0 0 0 0 0 0 127 0" result="hardAlpha"/>
<feOffset dy="2.0979"/>
<feGaussianBlur stdDeviation="1.04895"/>
<feComposite in2="hardAlpha" operator="arithmetic" k2="-1" k3="1"/>
<feColorMatrix type="matrix" values="0 0 0 0 0 0 0 0 0 0 0 0 0 0 0 0 0 0 0.25 0"/>
<feBlend mode="normal" in2="shape" result="effect1_innerShadow_317_1586"/>
</filter>
<filter id="filter2_i_317_1586" x="59.2843" y="0.103699" width="64.9573" height="81.9202" filterUnits="userSpaceOnUse" color-interpolation-filters="sRGB">
<feFlood flood-opacity="0" result="BackgroundImageFix"/>
<feBlend mode="normal" in="SourceGraphic" in2="BackgroundImageFix" result="shape"/>
<feColorMatrix in="SourceAlpha" type="matrix" values="0 0 0 0 0 0 0 0 0 0 0 0 0 0 0 0 0 0 127 0" result="hardAlpha"/>
<feOffset dy="2.0979"/>
<feGaussianBlur stdDeviation="1.04895"/>
<feComposite in2="hardAlpha" operator="arithmetic" k2="-1" k3="1"/>
<feColorMatrix type="matrix" values="0 0 0 0 0 0 0 0 0 0 0 0 0 0 0 0 0 0 0.25 0"/>
<feBlend mode="normal" in2="shape" result="effect1_innerShadow_317_1586"/>
</filter>
<filter id="filter3_i_317_1586" x="0.538452" y="22.6951" width="49.4559" height="61.0243" filterUnits="userSpaceOnUse" color-interpolation-filters="sRGB">
<feFlood flood-opacity="0" result="BackgroundImageFix"/>
<feBlend mode="normal" in="SourceGraphic" in2="BackgroundImageFix" result="shape"/>
<feColorMatrix in="SourceAlpha" type="matrix" values="0 0 0 0 0 0 0 0 0 0 0 0 0 0 0 0 0 0 127 0" result="hardAlpha"/>
<feOffset dy="2.0979"/>
<feGaussianBlur stdDeviation="1.04895"/>
<feComposite in2="hardAlpha" operator="arithmetic" k2="-1" k3="1"/>
<feColorMatrix type="matrix" values="0 0 0 0 0 0 0 0 0 0 0 0 0 0 0 0 0 0 0.25 0"/>
<feBlend mode="normal" in2="shape" result="effect1_innerShadow_317_1586"/>
</filter>
<filter id="filter4_d_317_1586" x="67.5828" y="1.26776" width="46.1408" height="19.5667" filterUnits="userSpaceOnUse" color-interpolation-filters="sRGB">
<feFlood flood-opacity="0" result="BackgroundImageFix"/>
<feColorMatrix in="SourceAlpha" type="matrix" values="0 0 0 0 0 0 0 0 0 0 0 0 0 0 0 0 0 0 127 0" result="hardAlpha"/>
<feOffset dy="2.0979"/>
<feGaussianBlur stdDeviation="1.04895"/>
<feComposite in2="hardAlpha" operator="out"/>
<feColorMatrix type="matrix" values="0 0 0 0 0 0 0 0 0 0 0 0 0 0 0 0 0 0 0.25 0"/>
<feBlend mode="normal" in2="BackgroundImageFix" result="effect1_dropShadow_317_1586"/>
<feBlend mode="normal" in="SourceGraphic" in2="effect1_dropShadow_317_1586" result="shape"/>
</filter>
<filter id="filter5_d_317_1586" x="6.42346" y="23.3849" width="42.2801" height="19.5667" filterUnits="userSpaceOnUse" color-interpolation-filters="sRGB">
<feFlood flood-opacity="0" result="BackgroundImageFix"/>
<feColorMatrix in="SourceAlpha" type="matrix" values="0 0 0 0 0 0 0 0 0 0 0 0 0 0 0 0 0 0 127 0" result="hardAlpha"/>
<feOffset dy="2.0979"/>
<feGaussianBlur stdDeviation="1.04895"/>
<feComposite in2="hardAlpha" operator="out"/>
<feColorMatrix type="matrix" values="0 0 0 0 0 0 0 0 0 0 0 0 0 0 0 0 0 0 0.25 0"/>
<feBlend mode="normal" in2="BackgroundImageFix" result="effect1_dropShadow_317_1586"/>
<feBlend mode="normal" in="SourceGraphic" in2="effect1_dropShadow_317_1586" result="shape"/>
</filter>
<filter id="filter6_i_317_1586" x="9.93585" y="90.4186" width="100.416" height="37.951" filterUnits="userSpaceOnUse" color-interpolation-filters="sRGB">
<feFlood flood-opacity="0" result="BackgroundImageFix"/>
<feBlend mode="normal" in="SourceGraphic" in2="BackgroundImageFix" result="shape"/>
<feColorMatrix in="SourceAlpha" type="matrix" values="0 0 0 0 0 0 0 0 0 0 0 0 0 0 0 0 0 0 127 0" result="hardAlpha"/>
<feOffset dy="2.0979"/>
<feGaussianBlur stdDeviation="1.04895"/>
<feComposite in2="hardAlpha" operator="arithmetic" k2="-1" k3="1"/>
<feColorMatrix type="matrix" values="0 0 0 0 0 0 0 0 0 0 0 0 0 0 0 0 0 0 0.25 0"/>
<feBlend mode="normal" in2="shape" result="effect1_innerShadow_317_1586"/>
</filter>
<linearGradient id="paint0_linear_317_1586" x1="54.4642" y1="88.9995" x2="62.6567" y2="73.0687" gradientUnits="userSpaceOnUse">
<stop stop-color="#F65F6F"/>
<stop offset="1" stop-color="#F78164"/>
</linearGradient>
<linearGradient id="paint1_linear_317_1586" x1="79.994" y1="87.7188" x2="129.228" y2="35.2717" gradientUnits="userSpaceOnUse">
<stop stop-color="#F65F6F"/>
<stop offset="1" stop-color="#F78164"/>
</linearGradient>
<linearGradient id="paint2_linear_317_1586" x1="16.306" y1="87.3743" x2="52.5637" y2="47.5397" gradientUnits="userSpaceOnUse">
<stop stop-color="#F65F6F"/>
<stop offset="1" stop-color="#F78164"/>
</linearGradient>
<linearGradient id="paint3_linear_317_1586" x1="41.9503" y1="129.772" x2="53.201" y2="88.524" gradientUnits="userSpaceOnUse">
<stop stop-color="#F65F6F"/>
<stop offset="1" stop-color="#F78164"/>
</linearGradient>
</defs>
</svg>
